<svg width="33" height="33" viewBox="0 0 33 33" fill="none" xmlns="http://www.w3.org/2000/svg">
<rect x="0.99999" y="0.99999" width="31.3333" height="31.3333" rx="5" stroke="#EADBC2" stroke-width="0.666667"/>
<path fill-rule="evenodd" clip-rule="evenodd" d="M27.3333 7.33333C27.3333 6.59695 26.7364 6 26 6H18.6274C17.8911 6 17.2941 6.59695 17.2941 7.33333V12.5023C17.2941 13.1364 17.7624 13.6583 18.3031 13.9895C18.7269 14.2491 19.0843 14.6065 19.3438 15.0302C19.6751 15.571 20.1969 16.0392 20.831 16.0392H26C26.7364 16.0392 27.3333 15.4423 27.3333 14.7059V7.33333ZM12.5023 17.2941C13.1364 17.2941 13.6583 17.7624 13.9895 18.3031C14.2491 18.7269 14.6065 19.0843 15.0302 19.3438C15.571 19.6751 16.0392 20.1969 16.0392 20.831V26C16.0392 26.7364 15.4423 27.3333 14.7059 27.3333H7.33333C6.59695 27.3333 6 26.7364 6 26V18.6274C6 17.8911 6.59695 17.2941 7.33333 17.2941H12.5023ZM22.3137 22.3137L25.0572 19.5703C25.8971 18.7303 27.3333 19.3252 27.3333 20.5131V26C27.3333 26.7364 26.7364 27.3333 26 27.3333H20.5131C19.3252 27.3333 18.7303 25.8971 19.5703 25.0572L22.3137 22.3137ZM11.0196 11.0196L13.7631 8.27614C14.603 7.43619 14.0081 6 12.8203 6H7.33333C6.59695 6 6 6.59695 6 7.33333V12.8203C6 14.0081 7.43619 14.603 8.27614 13.7631L11.0196 11.0196Z" fill="#EADBC8"/>
</svg>
